# xmcd CD database file
#
# Track frame offsets:
#	150
#	17219
#	41419
#	62379
#	78790
#	108558
#	147130
#	176228
#
# Disc length: 2630 seconds
#
# Revision: 0
# Processed by: cddbd v1.5.2PL0 Copyright (c) Steve Scherf et al.
# Submitted via: CDex 1.70beta2
#
DISCID=600a4408
DTITLE=Bernardo Fabris  - Quinteto
DYEAR=2011
DGENRE=Jazz
TTITLE0=Sejam Bem-Vindos
TTITLE1=Sentimentos Telúricos
TTITLE2=Cris
TTITLE3=Sincopação
TTITLE4=Ao Comandante
TTITLE5=Estrangeiro
TTITLE6=A Cidade Invisível
TTITLE7=Insensatez
EXTD=YEAR: 2011
EXTT0=
EXTT1=
EXTT2=
EXTT3=
EXTT4=
EXTT5=
EXTT6=
EXTT7=
PLAYORDER=
